<?xml version="1.0" encoding="utf-8"?>
<!-- Generator: Adobe Illustrator 25.0.1, SVG Export Plug-In . SVG Version: 6.00 Build 0)  -->
<svg version="1.1" id="레이어_1" xmlns="http://www.w3.org/2000/svg" xmlns:xlink="http://www.w3.org/1999/xlink" x="0px"
	 y="0px" viewBox="0 0 1920 1080" style="enable-background:new 0 0 1920 1080;" xml:space="preserve">
<style type="text/css">
	.st0{fill:#FF151B;}
	.st1{fill:#19B400;}
	.st2{fill:#E90006;}
	.st3{fill:none;stroke:#1EB400;stroke-miterlimit:10;}
	.st4{fill:#FFD97F;}
	.st5{fill:#FFBE06;}
	.st6{fill:#FF0064;}
	.st7{fill:#ECECEF;}
</style>
<path d="M1242.1,499.3c-1.4-9-1.9-18.4-0.3-27.4c1.4-7.9,5.6-15.4,2-23.3c-3.3-7.3-8.3-13.6-11.2-21.1c-2.9-7.4-5-15-6.5-22.8
	c-6.2-32.2-2.8-65.6-4.4-98.2c-1.9-37.3-6.7-74.4-10.9-111.4c-2-17.6-3.4-35.4-6.4-52.9c-2.7-15.4-7.8-30.3-17.9-42.8
	c-17.3-21.4-44.7-32.4-71.2-39.1c-34.1-8.7-69.6-13.3-104.6-17.1c-38-4.1-76.3-6.2-114.6-6.2c-19,0-37.9,0.6-56.8,1.6
	c-1.3,0.1-2.4,0.5-3.2,1.2c-30.7-0.9-64.5,0.5-87.4,22.8c-24.3,23.7-17.9,57.9-13.4,87.6c5.5,35.9,0.3,71.3-0.6,107.3
	c-0.5,18.2,1.1,36,4.5,53.9c3.4,18,7.1,35.8,6.9,54.2c-0.2,18.8-2.1,37.5-3,56.2c-0.8,19-1.3,38.1-1.5,57.1
	c-0.2,18.7-0.1,37.4,0,56.1c0.1,18.2-0.8,36.9,1.7,55c4.1,29.4,23.9,50.9,48.7,67c12.4,8.1,25.7,14.8,39,21.4
	c16,7.9,32.2,15.6,49.3,21.1c16.2,5.3,33.6,8.7,50.8,7.5c18.1-1.2,34.6-7.8,51.3-14c35.6-13.2,74.2-17.8,111.6-24.5
	c19.4-3.5,38.9-7,58.3-10.5c18.3-3.3,36.9-5.9,55-10.2c14.5-3.4,28.7-9.3,38.2-20.8c8.6-10.3,12.6-23.1,13.7-36.2
	C1262,559,1247,530.1,1242.1,499.3z M1239.9,616.6c-8.2,12.4-22.2,18-36.4,21.2c-17.1,3.9-34.7,6.5-52,9.6
	c-37.1,6.7-74.1,13.3-111.2,20c-17.7,3.2-35.4,6.6-52.5,12.4c-16.4,5.6-32.3,13.1-49.5,15.8c-34.5,5.5-68.5-10.1-98.4-24.7
	c-25-12.2-51.7-25-69.8-46.3c-22-26-17.5-61.4-17.7-92.8c-0.2-36-0.2-72,1.4-108c0.8-18.1,2.5-36.1,3-54.2c0.4-17.3-2-34.2-5.3-51.2
	c-3.4-17.3-6.1-34.4-6.1-52c0-17.6,1.5-35.2,2.6-52.8c1.1-17.2,1.6-34.6-0.3-51.7c-1.7-15.2-5.1-30.3-5.9-45.6
	c-0.8-14.7,1-30.2,10.8-42.2c9.1-11.2,23-17.8,37-21c17.3-4,35.4-3.2,53-2.5c1.9,0.1,3.3-0.7,4.1-1.8c71-3.3,142.5,0.3,212.7,11.4
	c29.3,4.6,60.3,9.2,87.2,22.1c11.7,5.6,22.7,13,31,22.9c10.2,12.2,14.5,27.4,16.9,42.6c2.7,17,4.1,34.3,6,51.4
	c2,17.6,4,35.3,5.9,52.9c3.7,34.3,5.1,68.4,5.3,102.9c0.2,29.3,1.6,59.9,15.7,86.5c1.8,3.4,4.1,6.5,5.9,9.8c2.5,4.8,0.2,9.1-1,14
	c-1.9,7.8-2.5,15.9-2,24c1,16.7,5.9,32.8,10.6,48.8C1247.9,562.8,1255.3,593.3,1239.9,616.6z"/>
<path d="M859,159"/>
<path class="st0" d="M1126.7,272c-4.2-24.2-21.9-43.7-43.9-53.5c-26.4-11.8-56.4-9.6-83.5-1c-2.7,0.9-3.7,3.2-3.4,5.4
	c-0.2-0.2-0.5-0.3-0.7-0.5c-20.8-10.9-44.5-22.5-68.3-14.6c-24.2,8-30.2,32.7-35.8,54.9c-3.2,12.6-5.5,25.7-4.7,38.7
	c0.8,13.1,5.1,25.1,11,36.7c10.8,21.2,23,44.6,41.5,60c8.8,7.4,19.3,13.3,30.7,15.4c12.4,2.4,24.7,0,36.6-3.6
	c21.4-6.4,43.8-11.1,64.4-19.8c21.3-9,36.8-23.6,45.4-45.2c4.4-11.1,7.4-23,9.6-34.8C1127.8,297.6,1128.8,284.7,1126.7,272z
	 M1111.4,326.5c-5.5,20.2-14.5,37.8-33,48.7c-16.4,9.7-35.5,13.8-53.7,18.8c-21.4,5.9-43.2,16.2-65,5.9
	c-19.9-9.4-32.3-28.4-42.8-46.8c-5.4-9.5-11.1-18.9-15.2-29c-4.6-11.2-6.2-22.8-5.3-34.8c1-13.7,4.9-27,8.8-40.1
	c3.2-10.6,7-21.9,16.8-28.1c21.8-13.8,48.1-0.4,68.1,10.1c3.9,2.1,7.5-1.4,7.5-4.7c1.1,0.9,2.5,1.3,4.3,0.8
	c22.1-7,46.2-9.8,68.6-2.6c17.9,5.7,34.2,18.3,42.1,35.6C1122.2,280.9,1117.2,305.3,1111.4,326.5z"/>
<path class="st1" d="M1071.2,147.3c-1.1-5.1-7.7-4.3-9.4-0.4c-0.8-1.3-2.1-2.3-4.1-2.4c-19.2-0.4-38,7.3-51.3,21
	c-1.2-4.1-3.3-7.8-6.7-10.9c-5.8-5.2-13.3-7.9-20-11.5c-3.8-2.1-7.4,1.2-7.5,4.5c-3.7,4.7-3.9,10.7-3.9,16.7
	c0.1,8.3,0.3,16.6,1.5,24.9c1.9,13.9,6.8,26.7,15.7,37.3c0.2,0.3,0.5,0.6,0.8,0.9c1.1,1.2,2.2,2.5,3.4,3.7c3.8,3.8,9.2-0.4,8.5-4.6
	c17.4-4.7,34.7-10.7,47.6-23.8C1059.8,188.1,1075.9,169,1071.2,147.3z M997.5,201.4c-0.9,5.6-2.5,11.8-6.5,16.1
	c-5.9-8-9.5-17.3-11.2-27.4c-1.1-6.7-1.4-13.6-1.5-20.4c-0.1-4.4-1.3-11.4,1.3-15.5c3.7,1.8,7.4,3.5,10.8,5.8
	c6.2,4.3,7.3,10.2,7.9,17.4C998.9,185.4,998.8,193.5,997.5,201.4z M1036.1,197.8c-8.9,8.2-20.2,12.9-31.8,16.4
	c4.8-11.2,4.9-25.1,4-36.6c0.6-0.3,1.1-0.7,1.6-1.3c11.8-14.2,29.2-22.3,47.7-21.9c2.1,0.1,3.5-1,4.2-2.4c1.1,9-2.8,17.4-7.8,24.8
	C1048.9,184.3,1042.7,191.7,1036.1,197.8z"/>
<path class="st2" d="M1100.6,316.6c-20.2,8.3-39.3,18.6-57.1,31c13.1-27.4,25.6-55,35.6-83.6c1.5-4.2-3.8-7.7-7.3-5.6
	c-21.4,12.4-40.6,28.3-56.7,46.7c9.8-18.4,21.2-35.9,35.4-51.5c3.8-4.2-1-10.6-6.1-7.9c-33.1,17.9-59,45-82.5,73.9
	c4-7.6,8.2-15,12.6-22.4c11.4-19.2,23-38.3,34.5-57.5c2.1-3.5-1.5-8.9-5.7-7.4c-18.2,6.6-35.3,15.5-51.1,26.4
	c6.5-9.7,13.3-19.3,20.3-28.6c3.1-4.1-2.8-9.3-6.8-6.8c-17.5,10.5-34.9,21-52.3,31.5c-5.5,3.3-0.5,12,5,8.6
	c10.5-6.3,21-12.6,31.4-18.9c-7.7,11.1-15,22.4-22,33.9c-3,5,3.7,9.8,7.8,6.1c16.9-15.3,36.2-27.8,57-37.1
	c-9.3,15.4-18.6,30.8-27.8,46.3c-10.9,18.4-21,37.4-27.6,57.8c-1.9,5.9,6,8,9.1,3.9c23.2-30.3,47.2-61.4,77.7-84.6
	c-21.3,30.9-35.7,66.1-49.8,100.8c-2.4,6,7.3,8.5,9.6,2.7c16-40.5,44.5-75.4,80.5-99.6c-11.2,29.6-24.9,58.1-38.7,86.6
	c-2.5,5.3,3.4,9.6,7.8,6.1c21-16.9,44.5-30.8,69.5-41C1109.2,323.9,1106.6,314.2,1100.6,316.6z"/>
<path class="st3" d="M983.4,158.4c4.6,3.6,3.9,10.6,3.7,16.4c-0.4,17,7.7,33.3,7.6,50.3"/>
<path class="st3" d="M977.2,175.9c3,3.5,6,6.9,9,10.4"/>
<path class="st3" d="M991.9,197.3c3.4-7.3,7.3-14.5,11.6-21.3"/>
<path class="st3" d="M988.3,171c1.3-1.4,2.7-2.8,4-4.2"/>
<path class="st3" d="M1007.1,211.3c-1-3.1,0.3-6.6,2.5-9c2.2-2.4,5.1-4.1,7.9-5.8c15-9.1,27.6-22.2,36.2-37.5"/>
<path class="st3" d="M1035.8,177.6c5.2-4.9,8.3-11.8,8.4-18.9"/>
<path class="st3" d="M1032.2,189.2c3.1,0.3,6.1,1.8,8.1,4.2"/>
<path class="st3" d="M1017.8,198.5c0-12,1.1-23.9,3.2-35.7"/>
<path class="st4" d="M986.6,335.9c-2.5,0.1-5,1.5-6.7,3.3c-0.2-0.3-0.3-0.6-0.5-0.8c-1-1.5-1.8-3.1-2.6-4.7
	c-3.6-6.3-8.6-10.4-16.2-9.7c-9.5,1-19.3,4.5-28.5,6.9c-2.4,0.6-3.5,2.5-3.6,4.5c-3.2-0.1-6.3,0-9.5,0.5c-2.4,0.3-3.9,1.8-4.5,3.5
	c-2.6,0-5.2,0-7.8,0.1c-6.4,0.1-6.5,10.1,0,10c0.9,0,1.8,0,2.6,0c0.9,3.3,3.4,5.9,4.3,9.2c1,4-3.5,7-5.8,9.5
	c-4.8,5.2-7.4,12-4.2,18.1c-0.9,0.5-1.7,0.9-2.5,1.3c-4.1,2.3-2.5,7.7,1.2,9.1c8.6,3.4,17.7-0.9,21.2-8.5c1.8-0.6,3.6-1.1,5.4-1.5
	c3.3-0.8,7-1.1,9.5,1.5c2.8,2.9,4.7,7.4,6.8,10.8c3,5,6.6,12.4,13.7,10.6c6.5-1.6,9.5-11.2,12.3-16.5l12.2-22.8
	c2-3.8,4.1-7.6,6.1-11.4c1.8-3.5,4.3-7,5.3-10.8C996.4,342.8,993.2,335.7,986.6,335.9z M956.9,399c-0.3-0.6-0.7-1.1-1.1-1.7
	c0.5,0.4,1,0.8,1.4,1.1C957.1,398.6,957,398.8,956.9,399z M956.6,375.3c-0.7,1.4-1.4,2.8-2.2,4.2c-0.5,1-0.6,2-0.5,3.1
	c-0.4-0.4-0.7-0.7-1.1-1.1c0-0.1,0-0.1,0-0.2c0.2-1.8,0.3-3.6,0.4-5.4c1.8-2.3,3.7-4.6,5.6-6.8C958.1,371.1,957.3,373.2,956.6,375.3
	z"/>
<path class="st5" d="M949.5,416.6c0.1-0.6,0.1-1.4,0-2.1c-0.7-3.4-2.3-6.4-4.4-8.9c0.9-2.5-0.7-5.4-3.1-6.4c0.4-0.8,0.7-1.6,0.7-2.5
	c-0.1-1.3-0.5-2.6-1.5-3.5c-1-0.9-2.2-1.5-3.5-1.5h-2.4c-1.3,0-2.6,0.6-3.5,1.5c-0.9,0.9-1.5,2.3-1.5,3.5c0,0.3,0,0.6,0.1,0.9
	c-4.2-0.5-8.7,0.1-12.7,2c-1.9,0.9-2.6,2.7-2.4,4.4c-0.6-0.1-5.8-2.1-6.9-2.5c-2.7-0.8-5.3-1.6-8-2.4c-1.4-1.9-3.1-3.4-5.1-4.6
	c1.2-7.1,2.4-14.2,3.6-21.2c0.3-1.9-0.3-3.6-1.5-4.8c0.1-0.1,0.2-0.2,0.4-0.2c2.9,2.9,8.1-0.2,8.2-4c0-2.4,0.1-4.9,0.1-7.3
	c0.1-5.8-7.2-6.2-9.6-1.9c-2.3-0.7-4.7-0.8-7.2-0.5c-2.3-1.6-5.6-0.5-7.2,1.9c-3.5,1.4-6.8,3.5-9.5,5.8c-0.2,0.2-0.4,0.4-0.6,0.5
	c-2.4-1.3-5.8-0.7-7,2.9c-0.5,1.6-1,3.2-1.6,4.8c-7.6,7.2-15,14.7-22.8,21.7c-1.9-0.7-4-0.9-6.2-0.4c-6.9,1.7-10.9,9.8-14.4,15.3
	c-1.3,2-2.6,4-3.8,6c-16.2,13.3-32.9,25.9-50.1,37.8c-6.1,4.2-13.9,8.6-19.4,14.4c-9-0.4-18,2-20.8,12.1c-0.8,3-0.9,6.1-0.9,9.2
	c-0.2,0.1-0.5,0.3-0.7,0.5C706,501.6,690,518.8,677,538.1c-0.2,0-0.4,0-0.6,0c-8.4,1.3-14.3,8.3-16.5,16.2
	c-6.6,6.8-13.1,13.7-19.7,20.5c-0.7-0.8-1.6-1.5-3-1.8c-3-0.6-5.6,1.1-6.6,3.9c-2.4,7.2,6.8,12.3,11.3,16.2c1.4,1.2,2.8,2.4,4.2,3.5
	c0.1,0.3,0.3,0.7,0.5,1c4.3,6.7,9.4,12.8,15.2,18.1c-0.1,1.2,0.4,2.5,1.6,3.6c0.8,0.7,1.6,1.4,2.4,2.1c-0.3,2.9-0.9,5.7-1.4,7.9
	c-1.5,6.5,7.2,8.5,9.6,2.7c0.3-0.8,0.7-1.6,1-2.4c5.8,5,11.5,10.1,17.3,15.1c0.4,0.3,0.7,0.7,1.1,1c0.6,3.8,2.2,7.7,5.3,11.3
	c3.1,3.7,8.1,0.3,8.5-3.5c0.1-1.2,0.3-2.4,0.4-3.7c0.2-0.2,0.3-0.4,0.4-0.6c1.2,3.3,5.3,5.6,8.1,2.2c3.6-4.5,7.2-9,10.8-13.6
	c0.9-1.1,1.2-2.4,1.1-3.7c0.3-0.3,0.6-0.6,0.9-0.9c10.4-4.8,19.8-11.3,25.7-20.6c0.7,3.6,4.9,6.3,8.2,2.8
	c11.7-12.2,21.4-26.1,28.6-41.4c0.9-1.8,0.7-3.6-0.1-4.9c0.1-0.1,0.2-0.2,0.2-0.3c1.2-0.1,2.3-0.5,3.1-1.4
	c14.3-15.1,29.4-29.3,45.3-42.7c5.7-4.8,11.8-10.2,16.4-16.4c0.9,0,1.8-0.1,2.7-0.7c5.9-3.4,10.7-8.4,13.7-14.4
	c6.6-6,12.7-12.6,17.9-20.4c3.4-5.1,6.8-10.2,11.3-14.4c1.7-1.6,3.6-3,5.5-4.4c0.9,0.1,1.9-0.1,2.8-0.8c1.1-0.9,2-1.8,2.7-2.8
	c1.5-0.9,2.9-1.8,4.4-2.7c12.2-7.5,24.5-15,36.7-22.6C959.4,422.2,954.8,414,949.5,416.6z M694.3,559c0-0.1-0.1-0.2-0.2-0.2
	c0.2-0.2,0.3-0.4,0.5-0.7c0.2,0.1,0.3,0.2,0.5,0.2C694.9,558.5,694.6,558.8,694.3,559z M709,644.3c-0.2-0.6-0.5-1.2-0.8-1.8
	c-0.4-0.5-0.8-0.9-1.2-1.3c1.4-0.4,2.9-0.8,4.3-1.3C710.5,641.4,709.7,642.8,709,644.3z M712.1,556c0.6-0.6,1.1-1.1,1.7-1.7
	c0.1,0,0.3,0.1,0.4,0.1C713.5,555,712.8,555.5,712.1,556z M735.5,480.4c0.2-0.7,0.5-1.3,0.8-1.9c0.8-1.3,1.9-2.1,3.1-2.6
	C738.1,477.3,736.8,478.8,735.5,480.4z M741.4,601c-0.4,0.4-0.8,0.8-1.2,1.2c1.1-2.1,2.1-4.2,3.2-6.4c0,0,0,0,0-0.1
	C742.7,597.5,742.1,599.3,741.4,601z M759,583.2c0.2-0.4,0.3-0.7,0.4-1.1c0.2-0.1,0.4-0.1,0.6-0.2
	C759.8,582.3,759.4,582.8,759,583.2z M797,442.2c-1,0.1-2.1,0.5-3.1,1.3c-0.1,0.1-0.2,0.2-0.3,0.3c0,0-0.1,0-0.2,0
	c2.1-1.5,4.2-3.1,6.2-4.7C798.8,440.1,797.9,441.1,797,442.2z M849,409.6L849,409.6c0.2-0.8,0.3-1.7,0.4-2.6
	c0.2-0.2,0.4-0.3,0.6-0.5c0.3,0.3,0.6,0.5,0.9,0.8c-0.4,0.7-0.8,1.4-1.1,2C849.6,409.4,849.3,409.5,849,409.6z M882.7,447.4
	c0.6-0.2,1.2-0.5,1.8-0.7c-0.2,0.2-0.4,0.5-0.6,0.7C883.5,447.4,883.1,447.4,882.7,447.4z M890,404.4c0,0.1-0.3,0.3-0.7,0.5
	c-0.2-0.4-0.4-0.8-0.6-1.2c0.5,0.1,0.9,0.2,1.4,0.2C890,404.1,890,404.3,890,404.4z M870.4,464.8c0-0.1,0-0.2,0-0.3
	c0.4-0.8,0.9-1.5,1.3-2.2c0.1,0,0.2,0.1,0.3,0.1C871.5,463.1,870.9,464,870.4,464.8z M878.9,370.2c0,0.2,0,0.3,0,0.5
	c-0.3,0.5-0.5,1.1-0.8,1.6c-0.3-0.2-0.7-0.3-1.1-0.4c0.5-0.4,1-0.9,1.4-1.3C878.6,370.5,878.8,370.3,878.9,370.2z M831.5,510.7
	c-0.3-0.2-0.7-0.4-1-0.5c1.3-1.4,2.5-2.8,3.8-4.1C833.3,507.6,832.4,509.1,831.5,510.7z M852.3,495.1c-0.1,0.7-0.3,1.5-0.4,2.2
	c-0.1,0.1-0.1,0.3-0.2,0.4c-0.5,0.4-1.1,0.7-1.6,1.1C850.8,497.6,851.5,496.4,852.3,495.1z M875.6,476.2c0.2-0.3,0.3-0.7,0.5-1
	c0.7-1.3,1.4-2.6,2.1-3.9c0.4-0.1,0.8-0.2,1.2-0.4c0.2-0.1,0.3-0.2,0.5-0.3C878.5,472.6,877,474.4,875.6,476.2z M913.4,438.8
	c-0.2-0.3-0.3-0.5-0.5-0.8c2.8-1.4,5.6-2.8,8.5-4.1C918.7,435.5,916.1,437.1,913.4,438.8z"/>
<path class="st6" d="M658,683.8c-0.3-1.4-0.7-2.6-1.2-3.7c-1.1-7.8-12-18-17.1-22c-5.3-4.2-10.6-8.5-15.7-12.9
	c0.3-1.5,0-3.1-1.2-4.4c-6.8-7.9-14.9-14.4-24.1-19.3c-0.6-0.3-1.2-0.5-1.8-0.6c0-0.3,0-0.6,0.1-1c0.3-5-7.4-6.7-9.4-2.6
	c-1-0.5-2-1-3.2-1.3c-5.2-1.6-10.5,0.3-12,5.8c-0.5,1.7-0.8,3.4-1.2,5.2c-6,6.4-11,13.6-14.9,21.6c-1.8,3.8,1.2,8.2,5.1,7.5
	c-2.8,7.3,1.3,13.1,6.1,18.7c-0.5,1.3-0.5,2.8,0.4,4.2c4.6,7,11,12.3,18.8,15.2c1.1,0.4,2.3,0.8,3.4,1.1c7.2,4.3,15,6.7,22.5,4.1
	c2.2,1.1,4.9,1.6,7.7,1.6c7.9-0.1,15.4-4.2,22.4-7.4c2.2-1,5-2.1,7.2-3.5c1.4,0.3,2.9,0.3,4.5,0C657.3,689.4,658.5,686.4,658,683.8z
	 M618.3,664.8c-0.3,0-0.6,0-0.9,0.1c-1.2-1.4-2.5-2.7-3.6-3.8c0.6,0.1,1.2,0.3,1.8,0.5C616.5,662.7,617.4,663.8,618.3,664.8z
	 M593.1,659.8c0.2-0.5,0.3-1,0.3-1.1c0,0,0-0.1,0-0.1c0.2,0,0.3,0,0.5,0C593.6,659.1,593.3,659.5,593.1,659.8z M596.6,638
	c0-0.5,0.1-1,0.1-1.5c0.6,0.4,1.2,0.9,1.8,1.3C597.9,637.8,597.3,637.9,596.6,638z M597.8,680.1c-0.5-1-1-1.9-1.5-2.8
	c1.1,1.1,2.2,2.1,3.3,3.2C599,680.4,598.4,680.2,597.8,680.1z M620.6,690.8c0-0.1,0-0.1,0-0.2c-0.1-0.4-0.2-0.8-0.3-1.2
	c0.5,0.5,1,0.9,1.6,1.3c-0.2,0-0.3,0-0.4,0.1C621.1,690.8,620.9,690.8,620.6,690.8z"/>
<path class="st7" d="M694.2,659.1c-1.4-6.1-6.2-11.2-10.2-15.7c-4.9-5.5-10.4-10.5-16.3-14.9c-6.2-4.7-13.6-7.7-19.6-12.5
	c-2.5-2-4.2-4.8-6.1-7.3c-2.3-3.1-5-5.8-7.9-8.4c-3.9-3.4-10-10.4-15.8-8.3c-3.2,1.2-6,4.4-8.6,6.5c-3.3,2.7-6.6,5.4-9.9,8.1
	c-4.2,3.4,0.1,8.9,4.5,8.2c-0.4,3.1,2.4,6.5,6.2,5.7c0.1,0,2.4,7.4,2.9,8.3c1.5,2.8,3.7,5,6.8,5.9c3,0.9,5.8,0.8,8.6,2.5
	c3.2,1.9,5.9,4.9,8.5,7.5c10.6,10.9,19,23.6,25.3,37.4c1.7,3.7,6.8,2.8,8.6,0c1.8-2.8,3.7-5.7,6.3-7.8c3.1-2.6,5.8-2,9.5-2.8
	C693,670.2,695.5,664.6,694.2,659.1z M638.1,622.9C638,622.9,638,622.9,638.1,622.9c0-1.1,0-2.2,0-3.3c0.3,0.4,0.7,0.8,1,1.2
	C638.6,621.4,638.2,622.1,638.1,622.9z M620.8,602c0.2,0.1,0.4,0.2,0.6,0.4c-0.8,0.4-1.4,0.9-1.9,1.6c-0.3,0.1-0.7,0.3-1,0.5
	s-0.7,0.4-1,0.6c0.2-0.2,0.5-0.4,0.7-0.6C618.5,604.2,621,602.6,620.8,602z"/>
<path class="st4" d="M971.1,331c0,0,0-0.1,0-0.2c0,0,0,0,0-0.1c0,0,0,0,0,0c0.1-0.1,0.1-0.2,0.2-0.3c1.4-2.2,0.5-5.6-1.8-6.8
	c-2.5-1.3-5.3-0.5-6.8,1.8c-1.1,1.6-1.6,3.8-1.5,5.7c0.1,2.5,1.1,4.4,2.6,6.3c1.6,2.1,5.4,1.8,7.1,0
	C972.5,335.4,972.4,333,971.1,331z"/>
<path d="M996.8,310.6c-6.1-3.8-15.2-0.4-21.7,0.9c-16.2,3.2-32.2,7.5-47.9,12.6c-17.9,5.9-35.3,13-52.3,21.1c-2.7,1.3-3,3.9-2,6
	c-1.7,1.1-3.3,2.5-4.8,4c-4.6,4.8-7.8,10.9-13,15.1c-5.6,4.6-12.8,7.4-18.8,11.5c-6.2,4.2-11.9,9-17.2,14.2c-1,1-1.4,2.1-1.5,3.1
	c-14.8,13.5-29.8,26.6-46.6,37.5c-18.5,12.1-35.8,24.6-51.7,40.2c-29.6,29.1-55.9,61.4-85.4,90.6c-4.2,4.1-8.4,8.2-12.7,12.1
	c-1.2,0.5-2.2,1.5-2.8,2.6c-8.9,8.1-18.1,15.9-27.8,23.1c-0.6,0.3-1.1,0.7-1.6,1.2c-0.1,0.1-0.2,0.2-0.4,0.3c-1.7-2.2-5-3.2-7.5-0.7
	c-11.5,11.5-23.8,24.2-27.7,40.5c-3.7,15.6,1.7,31.5,12.2,43.3c24.8,27.8,66.6,21.5,96.2,6c32.4-16.9,61-42.3,87.3-67.3
	c26.5-25.2,51.4-52,77.6-77.5c15-14.7,31-28.2,46.4-42.4c7.4-6.8,14.2-14.1,20.2-22.1c4-5.4,7.9-11.1,12.6-15.8
	c1.1,0,2.1-0.4,3.1-1.3c17.2-15.4,34.5-30.6,51.9-45.8c0.8-0.8,1.3-1.6,1.5-2.4c0.3-0.3,0.6-0.7,0.9-1.2
	c8.4-15.5,16.9-30.9,25.3-46.4c3.8-7,8-14,10.6-21.6c2.7-7.8,3.4-16.2,3.3-24.4C1002.7,321.6,1002.5,314.2,996.8,310.6z
	 M688.1,667.4c-26.9,19.5-61.4,40.7-95.7,28.5c-15.8-5.6-29.3-20.2-30-37.5c-0.6-14.6,8.2-26.7,18-37.1c1.4,1.1,3.2,1.4,5.2,0
	c2.4-1.7,4.8-3.4,7.2-5.1c11.7,10.8,23.4,21.6,35.1,32.4c5.7,5.2,12.5,10.3,16.6,17c3.6,6,5.1,12.7,10,18c4.3,4.8,11.4-2.3,7.1-7.1
	c-4.9-5.3-6.1-13-10.3-18.8c-4.5-6.2-10.7-11.1-16.2-16.2c-11.4-10.5-22.7-21-34.1-31.5c7.9-6.2,15.5-12.6,22.9-19.3
	c5.9,5.1,11.6,10.5,17,16.2c6.2,6.7,11.5,14.1,17.8,20.7c11.4,11.7,30.2,18.8,35.7,35.2C692.2,664.4,690.2,665.9,688.1,667.4z
	 M909.5,455.8c-0.5,0.1-1.1,0.4-1.7,0.7c-13.5,8.8-20.7,23.6-31.5,35.1c-11.8,12.6-25.6,23.4-38.3,35.1
	c-25.2,23.2-48.7,48.2-73,72.5c-20,20-40.4,39.7-62.6,57.3c-6.8-15.1-22.4-22.3-34.3-33.4c-7.1-6.6-12.6-14.7-19.2-21.8
	c-5.6-6.1-11.6-11.9-17.9-17.3c15.9-15,30.9-31,45.7-47.1c14.3-15.6,28.4-31.4,43.2-46.5c15.8-16.1,32.5-29.9,51.4-42.1
	c21.3-13.8,40.2-30,58.8-47.2c1.1-1,1.5-2.2,1.6-3.3c3-2.7,6.2-5.2,9.5-7.5c5.5-3.8,11.8-6.5,17.3-10.3c4.8-3.3,8.3-7.6,11.9-12.2
	c3.2-4.1,7.1-9.4,12.5-10.7c1.3,2,3.8,3.1,6.4,1.4c3.2-2,13.3-8.4,14.8-1.2c1.2,5.6-4.3,12.8-6.8,17.4c-2.8,5.3-7.5,11.5-7.6,17.7
	c-0.1,5.2,3.2,9.4,7.8,11.4c10.9,4.9,22.8-0.9,32.2-6.3c2.1-1.2,5.1-3.1,7.1-0.9c1.6,1.8,2.3,5.5,3.4,7.7
	c2.7,5.5,6.2,10.5,10.2,15.1C936.8,431.7,923.1,443.7,909.5,455.8z M983,363.5c-8.7,16-17.5,32-26.3,48.1
	c-4.2-5.1-7.2-10.7-9.8-16.8c-2.1-5.1-5.7-8.9-11.6-9c-6.9-0.2-11.7,4.6-17.6,7.3c-3.4,1.5-16.3,5.6-17.8-0.1
	c-0.8-2.8,3.9-9,5.2-11.4c1.8-3.3,3.6-6.5,5.3-9.9c2.5-5.1,4.9-11.1,3.5-17c-1.4-5.7-6-9.5-11.7-10.4c-0.3,0-0.5-0.1-0.8-0.1
	c21.8-9,44.3-16.1,67.2-21.2c0,0.4,0.2,0.7,0.3,1.1c2.7,7.1,7.5,13.4,14.4,17c2.6,1.4,5.7,2.2,8.3,1.3
	C990,349.9,986.7,356.6,983,363.5z"/>
</svg>
